<svg version="1.1" id="Layer_1" xmlns:x="ns_extend;" xmlns:i="ns_ai;" xmlns:graph="ns_graphs;" xmlns="http://www.w3.org/2000/svg" xmlns:xlink="http://www.w3.org/1999/xlink" x="0px" y="0px" viewBox="0 0 86.9 60" style="enable-background:new 0 0 86.9 60;" xml:space="preserve">
 <style type="text/css">
  .st0{fill:#FDB913;}
	.st1{fill:#003082;}
 </style>
 <metadata>
  <sfw xmlns="ns_sfw;">
   <slices>
   </slices>
   <sliceSourceBounds bottomLeftOrigin="true" height="60" width="86.9" x="-13.5" y="-8">
   </sliceSourceBounds>
  </sfw>
 </metadata>
 <g>
  <path class="st0" d="M85.1,13.2c-3-6.6-9.5-11.1-18.3-12.6C52.4-1.9,35.3,4.2,26.7,14.2l-0.1,0.1l0.3,0.4l0.1-0.1
		c6.6-5.1,14.4-8.5,22.6-9.7C62.2,3,72.7,6.2,77.7,13.3c4.9,7,3.5,20.4-2.9,28.3l-0.1,0.2l0.3,0.4l0.1-0.1
		C85.1,32.6,89.8,23.7,85.1,13.2z">
  </path>
  <path class="st1" d="M73.7,42.7c-7.4,5.7-16,9.7-25.2,11.6c-14.9,3.3-28.8,1.3-36.2-5.1C9,46.5,7,42.7,6.6,38.5
		c-0.9-10.8,7.2-22.1,21.7-30l0.1-0.1L28.3,8h-0.1C11.1,15-0.8,27.8,0,40c0.3,4.9,2.6,9.6,6.4,12.8c7.9,6.9,22,9,37.5,5.7
		c11.2-2.2,21.6-7.5,29.9-15.3L74,43L73.7,42.7L73.7,42.7z">
  </path>
  <polygon class="st1" points="34.6,22.9 35.4,18.5 20.2,18.5 15.8,42.1 31.7,42.1 32.5,37.6 21.9,37.6 22.9,32.2 32.4,32.2 
		33.2,27.8 23.8,27.8 24.7,22.9 	">
  </polygon>
  <path class="st1" d="M38.4,42.2h5.3L47.3,23h5.2c0.2-1,0.7-1.9,1.4-2.6c0.9-1,2-1.7,3.3-2H37.1L36.2,23H42L38.4,42.2z">
  </path>
  <path class="st1" d="M53.9,25.8c0,3.4,2.8,5.3,5.6,6.4c2.4,1,3.5,1.9,3.5,3.2c0,1.9-1.9,2.7-3.8,2.7c-2.2,0-4.4-0.6-6.4-1.7
		l-1.9,4.2c2.3,1.4,4.9,2,7.5,2c5.5,0,10.2-2.6,10.2-8c0-3.1-2.1-5-5.3-6.4c-2-0.9-3.8-1.8-3.8-3.3c0-1.1,1.3-2.3,3.7-2.3
		c1.7,0,3.5,0.4,5,1.1l1.7-4.3c-2-0.9-4.1-1.4-6.3-1.3C58.4,18.1,53.9,20.9,53.9,25.8z">
  </path>
  <path class="st1" d="M83.8,43.1c-1.3-1.2-3.4-1.1-4.6,0.3c-1.1,1.2-1.1,3.1,0,4.3c1.2,1.3,3.3,1.4,4.6,0.2c1.3-1.2,1.4-3.3,0.2-4.6
		C84,43.2,83.9,43.1,83.8,43.1L83.8,43.1z M83.5,47.3c-0.5,0.5-1.2,0.8-2,0.8c-0.7,0-1.5-0.3-2-0.8c-0.5-0.5-0.8-1.2-0.8-2
		c0-0.7,0.3-1.4,0.8-1.9c1.1-1.1,2.8-1.1,3.9,0c0,0,0,0,0,0C84.6,44.5,84.6,46.3,83.5,47.3L83.5,47.3z">
  </path>
  <path class="st1" d="M83,46.9c0-0.1,0-0.2,0-0.3v-0.3c0-0.2-0.1-0.4-0.2-0.5c-0.1-0.2-0.4-0.3-0.6-0.3c0.2,0,0.4-0.1,0.5-0.2
		c0.2-0.2,0.4-0.4,0.3-0.7c0-0.4-0.2-0.8-0.5-0.9c-0.3-0.1-0.7-0.1-1-0.1h-1.3v3.6h0.6v-1.4h0.5c0.2,0,0.5,0,0.7,0.1
		c0.3,0.2,0.4,0.5,0.3,0.8v0.5H83l0,0C82.9,47.1,82.9,47,83,46.9z M82,45.2c-0.2,0.1-0.4,0.1-0.6,0.1h-0.6V44h0.5
		c0.3,0,0.5,0,0.8,0.1c0.2,0.1,0.3,0.3,0.2,0.5C82.4,44.9,82.2,45.1,82,45.2z">
  </path>
 </g>
</svg>